%TF.GenerationSoftware,KiCad,Pcbnew,7.0.11+dfsg-1build4*%
%TF.CreationDate,2026-03-30T19:19:29+01:00*%
%TF.ProjectId,Specter_pcb,53706563-7465-4725-9f70-63622e6b6963,rev?*%
%TF.SameCoordinates,Original*%
%TF.FileFunction,Soldermask,Bot*%
%TF.FilePolarity,Negative*%
%FSLAX46Y46*%
G04 Gerber Fmt 4.6, Leading zero omitted, Abs format (unit mm)*
G04 Created by KiCad (PCBNEW 7.0.11+dfsg-1build4) date 2026-03-30 19:19:29*
%MOMM*%
%LPD*%
G01*
G04 APERTURE LIST*
G04 Aperture macros list*
%AMRoundRect*
0 Rectangle with rounded corners*
0 $1 Rounding radius*
0 $2 $3 $4 $5 $6 $7 $8 $9 X,Y pos of 4 corners*
0 Add a 4 corners polygon primitive as box body*
4,1,4,$2,$3,$4,$5,$6,$7,$8,$9,$2,$3,0*
0 Add four circle primitives for the rounded corners*
1,1,$1+$1,$2,$3*
1,1,$1+$1,$4,$5*
1,1,$1+$1,$6,$7*
1,1,$1+$1,$8,$9*
0 Add four rect primitives between the rounded corners*
20,1,$1+$1,$2,$3,$4,$5,0*
20,1,$1+$1,$4,$5,$6,$7,0*
20,1,$1+$1,$6,$7,$8,$9,0*
20,1,$1+$1,$8,$9,$2,$3,0*%
G04 Aperture macros list end*
%ADD10R,1.700000X1.700000*%
%ADD11O,1.700000X1.700000*%
%ADD12RoundRect,0.250200X-0.649800X-0.649800X0.649800X-0.649800X0.649800X0.649800X-0.649800X0.649800X0*%
%ADD13C,1.800000*%
%ADD14C,1.600000*%
%ADD15O,1.600000X1.600000*%
%ADD16RoundRect,0.250000X-0.350000X-0.625000X0.350000X-0.625000X0.350000X0.625000X-0.350000X0.625000X0*%
%ADD17O,1.200000X1.750000*%
%ADD18C,1.500000*%
%ADD19R,1.500000X1.500000*%
%ADD20C,2.000000*%
%ADD21R,1.800000X1.800000*%
G04 APERTURE END LIST*
D10*
%TO.C,J6*%
X201730000Y-30980000D03*
D11*
X199190000Y-30980000D03*
X196650000Y-30980000D03*
X194110000Y-30980000D03*
X191570000Y-30980000D03*
X189030000Y-30980000D03*
X186490000Y-30980000D03*
X183950000Y-30980000D03*
%TD*%
D10*
%TO.C,J10*%
X118960000Y-37050000D03*
D11*
X121500000Y-37050000D03*
X124040000Y-37050000D03*
%TD*%
%TO.C,J9*%
X110630000Y-121880000D03*
X110630000Y-119340000D03*
X110630000Y-116800000D03*
D10*
X110630000Y-114260000D03*
%TD*%
D11*
%TO.C,J8*%
X199060000Y-118900000D03*
X199060000Y-116360000D03*
X199060000Y-113820000D03*
D10*
X199060000Y-111280000D03*
%TD*%
D11*
%TO.C,J7*%
X199700000Y-74910000D03*
X199700000Y-72370000D03*
X199700000Y-69830000D03*
X199700000Y-67290000D03*
X199700000Y-64750000D03*
D10*
X199700000Y-62210000D03*
%TD*%
%TO.C,J5*%
X108680000Y-30400000D03*
D11*
X111220000Y-30400000D03*
X113760000Y-30400000D03*
X116300000Y-30400000D03*
X118840000Y-30400000D03*
X121380000Y-30400000D03*
X123920000Y-30400000D03*
X126460000Y-30400000D03*
%TD*%
D12*
%TO.C,U1*%
X169960000Y-29475000D03*
D13*
X172500000Y-29475000D03*
X175040000Y-29475000D03*
%TD*%
D10*
%TO.C,J2*%
X162030000Y-139870000D03*
D11*
X159490000Y-139870000D03*
X156950000Y-139870000D03*
X154410000Y-139870000D03*
X151870000Y-139870000D03*
X149330000Y-139870000D03*
%TD*%
D14*
%TO.C,R1*%
X130560000Y-36750000D03*
D15*
X138180000Y-36750000D03*
%TD*%
D16*
%TO.C,J3*%
X196390000Y-135880000D03*
D17*
X198390000Y-135880000D03*
%TD*%
D18*
%TO.C,SW5*%
X196280000Y-88810000D03*
X201360000Y-88810000D03*
D19*
X196280000Y-83730000D03*
D18*
X198820000Y-83730000D03*
X201360000Y-83730000D03*
%TD*%
D10*
%TO.C,J1*%
X174880000Y-40270000D03*
D11*
X172340000Y-40270000D03*
X169800000Y-40270000D03*
X167260000Y-40270000D03*
X164720000Y-40270000D03*
X162180000Y-40270000D03*
X159640000Y-40270000D03*
X157100000Y-40270000D03*
X154560000Y-40270000D03*
X152020000Y-40270000D03*
X149480000Y-40270000D03*
X146940000Y-40270000D03*
X144400000Y-40270000D03*
X141860000Y-40270000D03*
%TD*%
D20*
%TO.C,SW3*%
X146290000Y-114575000D03*
X152790000Y-114575000D03*
X146290000Y-119075000D03*
X152790000Y-119075000D03*
%TD*%
%TO.C,SW1*%
X155790000Y-107125000D03*
X162290000Y-107125000D03*
X155790000Y-111625000D03*
X162290000Y-111625000D03*
%TD*%
%TO.C,SW2*%
X165390000Y-114650000D03*
X171890000Y-114650000D03*
X165390000Y-119150000D03*
X171890000Y-119150000D03*
%TD*%
D10*
%TO.C,J4*%
X200290000Y-39360000D03*
D11*
X200290000Y-41900000D03*
X200290000Y-44440000D03*
X200290000Y-46980000D03*
X200290000Y-49520000D03*
X200290000Y-52060000D03*
%TD*%
D21*
%TO.C,D4*%
X162725000Y-30850000D03*
D13*
X165265000Y-30850000D03*
%TD*%
D20*
%TO.C,SW4*%
X155715000Y-122275000D03*
X162215000Y-122275000D03*
X155715000Y-126775000D03*
X162215000Y-126775000D03*
%TD*%
D21*
%TO.C,D2*%
X147725000Y-30850000D03*
D13*
X150265000Y-30850000D03*
%TD*%
D21*
%TO.C,D3*%
X155225000Y-30850000D03*
D13*
X157765000Y-30850000D03*
%TD*%
D21*
%TO.C,D1*%
X140225000Y-30850000D03*
D13*
X142765000Y-30850000D03*
%TD*%
M02*
