M48
; DRILL file {KiCad 7.0.11+dfsg-1build4} date Mon 30 Mar 2026 07:19:45 PM BST
; FORMAT={-:-/ absolute / metric / decimal}
; #@! TF.CreationDate,2026-03-30T19:19:45+01:00
; #@! TF.GenerationSoftware,Kicad,Pcbnew,7.0.11+dfsg-1build4
; #@! TF.FileFunction,Plated,1,2,PTH
FMAT,2
METRIC
; #@! TA.AperFunction,Plated,PTH,ComponentDrill
T1C0.200
; #@! TA.AperFunction,Plated,PTH,ViaDrill
T2C0.300
; #@! TA.AperFunction,Plated,PTH,ComponentDrill
T3C0.750
; #@! TA.AperFunction,Plated,PTH,ComponentDrill
T4C0.800
; #@! TA.AperFunction,Plated,PTH,ComponentDrill
T5C0.900
; #@! TA.AperFunction,Plated,PTH,ComponentDrill
T6C1.000
; #@! TA.AperFunction,Plated,PTH,ComponentDrill
T7C1.100
%
G90
G05
T1
X136.525Y-82.427
X136.525Y-83.953
X137.287Y-81.665
X137.287Y-83.19
X137.287Y-84.715
X138.05Y-82.427
X138.05Y-83.953
X138.812Y-81.665
X138.812Y-83.19
X138.812Y-84.715
X139.575Y-82.427
X139.575Y-83.953
T2
X115.239Y-40.956
X126.252Y-118.679
X127.768Y-31.698
X129.994Y-40.956
X130.088Y-81.288
X130.633Y-116.883
X131.412Y-83.829
X132.121Y-72.4
X132.945Y-111.434
X134.916Y-69.089
X137.867Y-69.089
X139.054Y-105.352
X139.062Y-79.346
X139.728Y-75.659
X141.537Y-113.079
X141.799Y-120.244
X142.297Y-72.4
X142.95Y-110.736
X143.668Y-82.068
X143.722Y-86.524
X144.045Y-75.355
X144.329Y-41.823
X145.88Y-93.07
X146.973Y-87.246
X148.233Y-115.307
X153.603Y-44.385
X153.863Y-50.025
X164.595Y-66.538
X165.164Y-64.205
X179.378Y-76.951
X193.735Y-43.681
X195.848Y-90.953
X196.942Y-48.383
X197.317Y-70.322
X203.759Y-64.448
T3
X196.39Y-135.88
X198.39Y-135.88
T4
X130.56Y-36.75
X138.18Y-36.75
X196.28Y-83.73
X198.82Y-83.73
X201.36Y-83.73
T5
X140.225Y-30.85
X142.765Y-30.85
X147.725Y-30.85
X150.265Y-30.85
X155.225Y-30.85
X157.765Y-30.85
X162.725Y-30.85
X165.265Y-30.85
X169.96Y-29.475
X172.5Y-29.475
X175.04Y-29.475
X196.28Y-88.81
X201.36Y-88.81
T6
X108.68Y-30.4
X110.63Y-114.26
X110.63Y-116.8
X110.63Y-119.34
X110.63Y-121.88
X111.22Y-30.4
X113.76Y-30.4
X116.3Y-30.4
X118.84Y-30.4
X118.96Y-37.05
X121.38Y-30.4
X121.5Y-37.05
X123.92Y-30.4
X124.04Y-37.05
X126.46Y-30.4
X141.86Y-40.27
X144.4Y-40.27
X146.94Y-40.27
X149.33Y-139.87
X149.48Y-40.27
X151.87Y-139.87
X152.02Y-40.27
X154.41Y-139.87
X154.56Y-40.27
X156.95Y-139.87
X157.1Y-40.27
X159.49Y-139.87
X159.64Y-40.27
X162.03Y-139.87
X162.18Y-40.27
X164.72Y-40.27
X167.26Y-40.27
X169.8Y-40.27
X172.34Y-40.27
X174.88Y-40.27
X183.95Y-30.98
X186.49Y-30.98
X189.03Y-30.98
X191.57Y-30.98
X194.11Y-30.98
X196.65Y-30.98
X199.06Y-111.28
X199.06Y-113.82
X199.06Y-116.36
X199.06Y-118.9
X199.19Y-30.98
X199.7Y-62.21
X199.7Y-64.75
X199.7Y-67.29
X199.7Y-69.83
X199.7Y-72.37
X199.7Y-74.91
X200.29Y-39.36
X200.29Y-41.9
X200.29Y-44.44
X200.29Y-46.98
X200.29Y-49.52
X200.29Y-52.06
X201.73Y-30.98
T7
X146.29Y-114.575
X146.29Y-119.075
X152.79Y-114.575
X152.79Y-119.075
X155.715Y-122.275
X155.715Y-126.775
X155.79Y-107.125
X155.79Y-111.625
X162.215Y-122.275
X162.215Y-126.775
X162.29Y-107.125
X162.29Y-111.625
X165.39Y-114.65
X165.39Y-119.15
X171.89Y-114.65
X171.89Y-119.15
M30
