%TF.GenerationSoftware,KiCad,Pcbnew,7.0.11+dfsg-1build4*%
%TF.CreationDate,2026-03-30T19:19:29+01:00*%
%TF.ProjectId,Specter_pcb,53706563-7465-4725-9f70-63622e6b6963,rev?*%
%TF.SameCoordinates,Original*%
%TF.FileFunction,Copper,L1,Top*%
%TF.FilePolarity,Positive*%
%FSLAX46Y46*%
G04 Gerber Fmt 4.6, Leading zero omitted, Abs format (unit mm)*
G04 Created by KiCad (PCBNEW 7.0.11+dfsg-1build4) date 2026-03-30 19:19:29*
%MOMM*%
%LPD*%
G01*
G04 APERTURE LIST*
G04 Aperture macros list*
%AMRoundRect*
0 Rectangle with rounded corners*
0 $1 Rounding radius*
0 $2 $3 $4 $5 $6 $7 $8 $9 X,Y pos of 4 corners*
0 Add a 4 corners polygon primitive as box body*
4,1,4,$2,$3,$4,$5,$6,$7,$8,$9,$2,$3,0*
0 Add four circle primitives for the rounded corners*
1,1,$1+$1,$2,$3*
1,1,$1+$1,$4,$5*
1,1,$1+$1,$6,$7*
1,1,$1+$1,$8,$9*
0 Add four rect primitives between the rounded corners*
20,1,$1+$1,$2,$3,$4,$5,0*
20,1,$1+$1,$4,$5,$6,$7,0*
20,1,$1+$1,$6,$7,$8,$9,0*
20,1,$1+$1,$8,$9,$2,$3,0*%
G04 Aperture macros list end*
%TA.AperFunction,ComponentPad*%
%ADD10R,1.700000X1.700000*%
%TD*%
%TA.AperFunction,ComponentPad*%
%ADD11O,1.700000X1.700000*%
%TD*%
%TA.AperFunction,ComponentPad*%
%ADD12RoundRect,0.250200X-0.649800X-0.649800X0.649800X-0.649800X0.649800X0.649800X-0.649800X0.649800X0*%
%TD*%
%TA.AperFunction,ComponentPad*%
%ADD13C,1.800000*%
%TD*%
%TA.AperFunction,ComponentPad*%
%ADD14C,1.600000*%
%TD*%
%TA.AperFunction,ComponentPad*%
%ADD15O,1.600000X1.600000*%
%TD*%
%TA.AperFunction,ComponentPad*%
%ADD16RoundRect,0.250000X-0.350000X-0.625000X0.350000X-0.625000X0.350000X0.625000X-0.350000X0.625000X0*%
%TD*%
%TA.AperFunction,ComponentPad*%
%ADD17O,1.200000X1.750000*%
%TD*%
%TA.AperFunction,ComponentPad*%
%ADD18C,1.500000*%
%TD*%
%TA.AperFunction,ComponentPad*%
%ADD19R,1.500000X1.500000*%
%TD*%
%TA.AperFunction,SMDPad,CuDef*%
%ADD20R,0.900000X1.500000*%
%TD*%
%TA.AperFunction,SMDPad,CuDef*%
%ADD21R,1.500000X0.900000*%
%TD*%
%TA.AperFunction,SMDPad,CuDef*%
%ADD22R,1.050000X1.050000*%
%TD*%
%TA.AperFunction,HeatsinkPad*%
%ADD23C,0.600000*%
%TD*%
%TA.AperFunction,SMDPad,CuDef*%
%ADD24R,4.200000X4.200000*%
%TD*%
%TA.AperFunction,ComponentPad*%
%ADD25C,2.000000*%
%TD*%
%TA.AperFunction,ComponentPad*%
%ADD26R,1.800000X1.800000*%
%TD*%
%TA.AperFunction,ViaPad*%
%ADD27C,0.600000*%
%TD*%
%TA.AperFunction,Conductor*%
%ADD28C,0.400000*%
%TD*%
G04 APERTURE END LIST*
D10*
%TO.P,J6,1,Pin_1*%
%TO.N,VCC*%
X201730000Y-30980000D03*
D11*
%TO.P,J6,2,Pin_2*%
%TO.N,GND*%
X199190000Y-30980000D03*
%TO.P,J6,3,Pin_3*%
%TO.N,/MOSI*%
X196650000Y-30980000D03*
%TO.P,J6,4,Pin_4*%
%TO.N,/SCK*%
X194110000Y-30980000D03*
%TO.P,J6,5,Pin_5*%
%TO.N,/MISO*%
X191570000Y-30980000D03*
%TO.P,J6,6,Pin_6*%
%TO.N,/GDO2*%
X189030000Y-30980000D03*
%TO.P,J6,7,Pin_7*%
%TO.N,/GDO0*%
X186490000Y-30980000D03*
%TO.P,J6,8,Pin_8*%
%TO.N,/CC1101_CS2*%
X183950000Y-30980000D03*
%TD*%
D10*
%TO.P,J10,1,Pin_1*%
%TO.N,GND*%
X118960000Y-37050000D03*
D11*
%TO.P,J10,2,Pin_2*%
%TO.N,/GPIO4*%
X121500000Y-37050000D03*
%TO.P,J10,3,Pin_3*%
%TO.N,/IR_LED*%
X124040000Y-37050000D03*
%TD*%
%TO.P,J9,4,Pin_4*%
%TO.N,/GPS_RX*%
X110630000Y-121880000D03*
%TO.P,J9,3,Pin_3*%
%TO.N,/GPS_TX*%
X110630000Y-119340000D03*
%TO.P,J9,2,Pin_2*%
%TO.N,GND*%
X110630000Y-116800000D03*
D10*
%TO.P,J9,1,Pin_1*%
%TO.N,VCC*%
X110630000Y-114260000D03*
%TD*%
D11*
%TO.P,J8,4,Pin_4*%
%TO.N,/RDM_RX*%
X199060000Y-118900000D03*
%TO.P,J8,3,Pin_3*%
%TO.N,/RDM_TX*%
X199060000Y-116360000D03*
%TO.P,J8,2,Pin_2*%
%TO.N,GND*%
X199060000Y-113820000D03*
D10*
%TO.P,J8,1,Pin_1*%
%TO.N,VCC*%
X199060000Y-111280000D03*
%TD*%
D11*
%TO.P,J7,6,Pin_6*%
%TO.N,/NFC_CS*%
X199700000Y-74910000D03*
%TO.P,J7,5,Pin_5*%
%TO.N,/MISO*%
X199700000Y-72370000D03*
%TO.P,J7,4,Pin_4*%
%TO.N,/SCK*%
X199700000Y-69830000D03*
%TO.P,J7,3,Pin_3*%
%TO.N,/MOSI*%
X199700000Y-67290000D03*
%TO.P,J7,2,Pin_2*%
%TO.N,GND*%
X199700000Y-64750000D03*
D10*
%TO.P,J7,1,Pin_1*%
%TO.N,VCC*%
X199700000Y-62210000D03*
%TD*%
%TO.P,J5,1,Pin_1*%
%TO.N,VCC*%
X108680000Y-30400000D03*
D11*
%TO.P,J5,2,Pin_2*%
%TO.N,GND*%
X111220000Y-30400000D03*
%TO.P,J5,3,Pin_3*%
%TO.N,/MOSI*%
X113760000Y-30400000D03*
%TO.P,J5,4,Pin_4*%
%TO.N,/SCK*%
X116300000Y-30400000D03*
%TO.P,J5,5,Pin_5*%
%TO.N,/MISO*%
X118840000Y-30400000D03*
%TO.P,J5,6,Pin_6*%
%TO.N,unconnected-(J5-Pin_6-Pad6)*%
X121380000Y-30400000D03*
%TO.P,J5,7,Pin_7*%
%TO.N,/GDO0*%
X123920000Y-30400000D03*
%TO.P,J5,8,Pin_8*%
%TO.N,/CC1101_CS*%
X126460000Y-30400000D03*
%TD*%
D12*
%TO.P,U1,1,OUT*%
%TO.N,/GPIO15*%
X169960000Y-29475000D03*
D13*
%TO.P,U1,2,GND*%
%TO.N,GND*%
X172500000Y-29475000D03*
%TO.P,U1,3,Vs*%
%TO.N,VCC*%
X175040000Y-29475000D03*
%TD*%
D10*
%TO.P,J2,1,Pin_1*%
%TO.N,/VBUS*%
X162030000Y-139870000D03*
D11*
%TO.P,J2,2,Pin_2*%
%TO.N,GND*%
X159490000Y-139870000D03*
%TO.P,J2,3,Pin_3*%
%TO.N,/BAT*%
X156950000Y-139870000D03*
%TO.P,J2,4,Pin_4*%
%TO.N,GND*%
X154410000Y-139870000D03*
%TO.P,J2,5,Pin_5*%
%TO.N,/CHRG*%
X151870000Y-139870000D03*
%TO.P,J2,6,Pin_6*%
%TO.N,/STDBY*%
X149330000Y-139870000D03*
%TD*%
D14*
%TO.P,R1,1*%
%TO.N,/GPIO4*%
X130560000Y-36750000D03*
D15*
%TO.P,R1,2*%
X138180000Y-36750000D03*
%TD*%
D16*
%TO.P,J3,1,Pin_1*%
%TO.N,/BAT*%
X196390000Y-135880000D03*
D17*
%TO.P,J3,2,Pin_2*%
%TO.N,GND*%
X198390000Y-135880000D03*
%TD*%
D18*
%TO.P,SW5,*%
%TO.N,*%
X196280000Y-88810000D03*
X201360000Y-88810000D03*
D19*
%TO.P,SW5,1,A*%
%TO.N,/BAT*%
X196280000Y-83730000D03*
D18*
%TO.P,SW5,2,B*%
%TO.N,VCC*%
X198820000Y-83730000D03*
%TO.P,SW5,3*%
%TO.N,N/C*%
X201360000Y-83730000D03*
%TD*%
D20*
%TO.P,U2,1,GND*%
%TO.N,GND*%
X130710000Y-91260000D03*
%TO.P,U2,2,VDD*%
%TO.N,VCC*%
X131980000Y-91260000D03*
%TO.P,U2,3,EN*%
%TO.N,unconnected-(U2-EN-Pad3)*%
X133250000Y-91260000D03*
%TO.P,U2,4,SENSOR_VP*%
%TO.N,unconnected-(U2-SENSOR_VP-Pad4)*%
X134520000Y-91260000D03*
%TO.P,U2,5,SENSOR_VN*%
%TO.N,unconnected-(U2-SENSOR_VN-Pad5)*%
X135790000Y-91260000D03*
%TO.P,U2,6,IO34*%
%TO.N,/GPIO34*%
X137060000Y-91260000D03*
%TO.P,U2,7,IO35*%
%TO.N,/GPIO35*%
X138330000Y-91260000D03*
%TO.P,U2,8,IO32*%
%TO.N,/GPIO32*%
X139600000Y-91260000D03*
%TO.P,U2,9,IO33*%
%TO.N,/GPIO33*%
X140870000Y-91260000D03*
%TO.P,U2,10,IO25*%
%TO.N,/CC1101_CS*%
X142140000Y-91260000D03*
%TO.P,U2,11,IO26*%
%TO.N,/CC1101_CS2*%
X143410000Y-91260000D03*
%TO.P,U2,12,IO27*%
%TO.N,/MISO*%
X144680000Y-91260000D03*
%TO.P,U2,13,IO14*%
%TO.N,/SCK*%
X145950000Y-91260000D03*
%TO.P,U2,14,IO12*%
%TO.N,/GPS_RX*%
X147220000Y-91260000D03*
D21*
%TO.P,U2,15,GND*%
%TO.N,GND*%
X148470000Y-88220000D03*
%TO.P,U2,16,IO13*%
%TO.N,/MOSI*%
X148470000Y-86950000D03*
%TO.P,U2,17,SHD/SD2*%
%TO.N,unconnected-(U2-SHD{slash}SD2-Pad17)*%
X148470000Y-85680000D03*
%TO.P,U2,18,SWP/SD3*%
%TO.N,unconnected-(U2-SWP{slash}SD3-Pad18)*%
X148470000Y-84410000D03*
%TO.P,U2,19,SCS/CMD*%
%TO.N,unconnected-(U2-SCS{slash}CMD-Pad19)*%
X148470000Y-83140000D03*
%TO.P,U2,20,SCK/CLK*%
%TO.N,unconnected-(U2-SCK{slash}CLK-Pad20)*%
X148470000Y-81870000D03*
%TO.P,U2,21,SDO/SD0*%
%TO.N,unconnected-(U2-SDO{slash}SD0-Pad21)*%
X148470000Y-80600000D03*
%TO.P,U2,22,SDI/SD1*%
%TO.N,unconnected-(U2-SDI{slash}SD1-Pad22)*%
X148470000Y-79330000D03*
%TO.P,U2,23,IO15*%
%TO.N,/GPIO15*%
X148470000Y-78060000D03*
%TO.P,U2,24,IO2*%
%TO.N,unconnected-(U2-IO2-Pad24)*%
X148470000Y-76790000D03*
D20*
%TO.P,U2,25,IO0*%
%TO.N,unconnected-(U2-IO0-Pad25)*%
X147220000Y-73760000D03*
%TO.P,U2,26,IO4*%
%TO.N,/GPIO4*%
X145950000Y-73760000D03*
%TO.P,U2,27,IO16*%
%TO.N,/RDM_TX*%
X144680000Y-73760000D03*
%TO.P,U2,28,IO17*%
%TO.N,/RDM_RX*%
X143410000Y-73760000D03*
%TO.P,U2,29,IO5*%
%TO.N,/SD_CS*%
X142140000Y-73760000D03*
%TO.P,U2,30,IO18*%
%TO.N,/DC*%
X140870000Y-73760000D03*
%TO.P,U2,31,IO19*%
%TO.N,/NFC_CS*%
X139600000Y-73760000D03*
%TO.P,U2,32,NC*%
%TO.N,unconnected-(U2-NC-Pad32)*%
X138330000Y-73760000D03*
%TO.P,U2,33,IO21*%
%TO.N,/CS*%
X137060000Y-73760000D03*
%TO.P,U2,34,RXD0/IO3*%
%TO.N,unconnected-(U2-RXD0{slash}IO3-Pad34)*%
X135790000Y-73760000D03*
%TO.P,U2,35,TXD0/IO1*%
%TO.N,unconnected-(U2-TXD0{slash}IO1-Pad35)*%
X134520000Y-73760000D03*
%TO.P,U2,36,IO22*%
%TO.N,/RST*%
X133250000Y-73760000D03*
%TO.P,U2,37,IO23*%
%TO.N,/GPS_TX*%
X131980000Y-73760000D03*
%TO.P,U2,38,GND*%
%TO.N,GND*%
X130710000Y-73760000D03*
D22*
%TO.P,U2,39,GND*%
X136525000Y-84715000D03*
D23*
X137287500Y-84715000D03*
D22*
X138050000Y-84715000D03*
D23*
X138812500Y-84715000D03*
D22*
X139575000Y-84715000D03*
D23*
X136525000Y-83952500D03*
X138050000Y-83952500D03*
X139575000Y-83952500D03*
D22*
X136525000Y-83190000D03*
D23*
X137287500Y-83190000D03*
D22*
X138050000Y-83190000D03*
D24*
X138050000Y-83190000D03*
D23*
X138812500Y-83190000D03*
D22*
X139575000Y-83190000D03*
D23*
X136525000Y-82427500D03*
X138050000Y-82427500D03*
X139575000Y-82427500D03*
D22*
X136525000Y-81665000D03*
D23*
X137287500Y-81665000D03*
D22*
X138050000Y-81665000D03*
D23*
X138812500Y-81665000D03*
D22*
X139575000Y-81665000D03*
%TD*%
D10*
%TO.P,J1,1,Pin_1*%
%TO.N,VCC*%
X174880000Y-40270000D03*
D11*
%TO.P,J1,2,Pin_2*%
%TO.N,GND*%
X172340000Y-40270000D03*
%TO.P,J1,3,Pin_3*%
%TO.N,/CS*%
X169800000Y-40270000D03*
%TO.P,J1,4,Pin_4*%
%TO.N,/RST*%
X167260000Y-40270000D03*
%TO.P,J1,5,Pin_5*%
%TO.N,/DC*%
X164720000Y-40270000D03*
%TO.P,J1,6,Pin_6*%
%TO.N,/MOSI*%
X162180000Y-40270000D03*
%TO.P,J1,7,Pin_7*%
%TO.N,/SCK*%
X159640000Y-40270000D03*
%TO.P,J1,8,Pin_8*%
%TO.N,VCC*%
X157100000Y-40270000D03*
%TO.P,J1,9,Pin_9*%
%TO.N,GND*%
X154560000Y-40270000D03*
%TO.P,J1,10,Pin_10*%
%TO.N,/GPIO4*%
X152020000Y-40270000D03*
%TO.P,J1,11,Pin_11*%
%TO.N,/MISO*%
X149480000Y-40270000D03*
%TO.P,J1,12,Pin_12*%
%TO.N,/SCK*%
X146940000Y-40270000D03*
%TO.P,J1,13,Pin_13*%
%TO.N,GND*%
X144400000Y-40270000D03*
%TO.P,J1,14,Pin_14*%
X141860000Y-40270000D03*
%TD*%
D25*
%TO.P,SW3,1,1*%
%TO.N,/GPIO34*%
X146290000Y-114575000D03*
X152790000Y-114575000D03*
%TO.P,SW3,2,2*%
%TO.N,GND*%
X146290000Y-119075000D03*
X152790000Y-119075000D03*
%TD*%
%TO.P,SW1,1,1*%
%TO.N,/GPIO32*%
X155790000Y-107125000D03*
X162290000Y-107125000D03*
%TO.P,SW1,2,2*%
%TO.N,GND*%
X155790000Y-111625000D03*
X162290000Y-111625000D03*
%TD*%
%TO.P,SW2,1,1*%
%TO.N,/GPIO33*%
X165390000Y-114650000D03*
X171890000Y-114650000D03*
%TO.P,SW2,2,2*%
%TO.N,GND*%
X165390000Y-119150000D03*
X171890000Y-119150000D03*
%TD*%
D10*
%TO.P,J4,1,Pin_1*%
%TO.N,VCC*%
X200290000Y-39360000D03*
D11*
%TO.P,J4,2,Pin_2*%
%TO.N,GND*%
X200290000Y-41900000D03*
%TO.P,J4,3,Pin_3*%
%TO.N,/MISO*%
X200290000Y-44440000D03*
%TO.P,J4,4,Pin_4*%
%TO.N,/MOSI*%
X200290000Y-46980000D03*
%TO.P,J4,5,Pin_5*%
%TO.N,/SCK*%
X200290000Y-49520000D03*
%TO.P,J4,6,Pin_6*%
%TO.N,/SD_CS*%
X200290000Y-52060000D03*
%TD*%
D26*
%TO.P,D4,1,K*%
%TO.N,/IR_LED*%
X162725000Y-30850000D03*
D13*
%TO.P,D4,2,A*%
%TO.N,VCC*%
X165265000Y-30850000D03*
%TD*%
D25*
%TO.P,SW4,1,1*%
%TO.N,/GPIO35*%
X155715000Y-122275000D03*
X162215000Y-122275000D03*
%TO.P,SW4,2,2*%
%TO.N,GND*%
X155715000Y-126775000D03*
X162215000Y-126775000D03*
%TD*%
D26*
%TO.P,D2,1,K*%
%TO.N,/IR_LED*%
X147725000Y-30850000D03*
D13*
%TO.P,D2,2,A*%
%TO.N,VCC*%
X150265000Y-30850000D03*
%TD*%
D26*
%TO.P,D3,1,K*%
%TO.N,/IR_LED*%
X155225000Y-30850000D03*
D13*
%TO.P,D3,2,A*%
%TO.N,VCC*%
X157765000Y-30850000D03*
%TD*%
D26*
%TO.P,D1,1,K*%
%TO.N,/IR_LED*%
X140225000Y-30850000D03*
D13*
%TO.P,D1,2,A*%
%TO.N,VCC*%
X142765000Y-30850000D03*
%TD*%
D27*
%TO.N,/RST*%
X165163900Y-64204900D03*
%TO.N,/CS*%
X164595200Y-66538400D03*
%TO.N,/CC1101_CS2*%
X179377900Y-76951100D03*
X143722100Y-86523600D03*
%TO.N,/GPS_RX*%
X141536600Y-113079100D03*
%TO.N,/GPS_TX*%
X126251600Y-118679500D03*
%TO.N,/SD_CS*%
X142297200Y-72400000D03*
%TO.N,/RDM_RX*%
X143668000Y-82068100D03*
X195848200Y-90953100D03*
%TO.N,/RDM_TX*%
X148233300Y-115307000D03*
%TO.N,/NFC_CS*%
X139728200Y-75658500D03*
%TO.N,/CC1101_CS*%
X139062300Y-79346100D03*
X132121400Y-72400000D03*
%TO.N,/GPIO35*%
X141798800Y-120243900D03*
%TO.N,/GPIO33*%
X142949900Y-110735900D03*
%TO.N,/GPIO32*%
X139054500Y-105352500D03*
%TO.N,/MISO*%
X193735100Y-43681400D03*
X144045000Y-75354700D03*
%TO.N,/SCK*%
X145880000Y-93070000D03*
X146972700Y-87246500D03*
X197317200Y-70321700D03*
%TO.N,/MOSI*%
X153862900Y-50025300D03*
X115238900Y-40955700D03*
%TO.N,/DC*%
X144329000Y-41822800D03*
%TO.N,/RST*%
X134916000Y-69088700D03*
%TO.N,/CS*%
X137867000Y-69088700D03*
%TO.N,GND*%
X203758900Y-64448500D03*
X131412000Y-83829000D03*
X153603200Y-44384600D03*
X129994400Y-40955700D03*
X130633000Y-116882700D03*
X130088500Y-81287800D03*
%TO.N,VCC*%
X132945500Y-111434100D03*
X196942100Y-48382600D03*
%TO.N,/IR_LED*%
X127768200Y-31698000D03*
%TD*%
D28*
%TO.N,/CC1101_CS2*%
X179377900Y-36804000D02*
X179377900Y-76951100D01*
X183950000Y-32231900D02*
X179377900Y-36804000D01*
X183950000Y-30980000D02*
X183950000Y-32231900D01*
X143410000Y-86835700D02*
X143410000Y-91260000D01*
X143722100Y-86523600D02*
X143410000Y-86835700D01*
X143722100Y-86523600D02*
X143410000Y-86835700D01*
X143410000Y-86835700D02*
X143722100Y-86523600D01*
%TO.N,/GPS_RX*%
X141623600Y-113079100D02*
X141536600Y-113079100D01*
X147220000Y-107482700D02*
X141623600Y-113079100D01*
X147220000Y-91260000D02*
X147220000Y-107482700D01*
%TO.N,/GPS_TX*%
X129858100Y-115073000D02*
X126251600Y-118679500D01*
X129858100Y-82511500D02*
X129858100Y-115073000D01*
X131980000Y-80389600D02*
X129858100Y-82511500D01*
X131980000Y-73760000D02*
X131980000Y-80389600D01*
%TO.N,/SD_CS*%
X142140000Y-72557200D02*
X142140000Y-73760000D01*
X142297200Y-72400000D02*
X142140000Y-72557200D01*
%TO.N,/RDM_RX*%
X143325800Y-74996100D02*
X143410000Y-74911900D01*
X143325800Y-81725900D02*
X143325800Y-74996100D01*
X143668000Y-82068100D02*
X143325800Y-81725900D01*
X143410000Y-73760000D02*
X143410000Y-74911900D01*
X198541200Y-117648100D02*
X199060000Y-117648100D01*
X195848200Y-114955100D02*
X198541200Y-117648100D01*
X195848200Y-90953100D02*
X195848200Y-114955100D01*
X199060000Y-118900000D02*
X199060000Y-117648100D01*
X143668000Y-82068100D02*
X143325800Y-81725900D01*
X143325800Y-81725900D02*
X143668000Y-82068100D01*
%TO.N,/RDM_TX*%
X144680000Y-73760000D02*
X144680000Y-74911900D01*
X145025900Y-75257800D02*
X144680000Y-74911900D01*
X145025900Y-86545500D02*
X145025900Y-75257800D01*
X148233300Y-89752900D02*
X145025900Y-86545500D01*
X148233300Y-115307000D02*
X148233300Y-89752900D01*
%TO.N,/NFC_CS*%
X139600000Y-75530300D02*
X139728200Y-75658500D01*
X139600000Y-73760000D02*
X139600000Y-75530300D01*
%TO.N,/CC1101_CS*%
X142140000Y-82423800D02*
X139062300Y-79346100D01*
X142140000Y-91260000D02*
X142140000Y-82423800D01*
X132121400Y-34809500D02*
X127711900Y-30400000D01*
X132121400Y-72400000D02*
X132121400Y-34809500D01*
X126460000Y-30400000D02*
X127711900Y-30400000D01*
%TO.N,/BAT*%
X195102300Y-134592300D02*
X196390000Y-135880000D01*
X195102300Y-86059600D02*
X195102300Y-134592300D01*
X196280000Y-84881900D02*
X195102300Y-86059600D01*
X196280000Y-83730000D02*
X196280000Y-84881900D01*
%TO.N,/GPIO15*%
X160910000Y-38525000D02*
X169960000Y-29475000D01*
X160910000Y-41310200D02*
X160910000Y-38525000D01*
X149621900Y-52598300D02*
X160910000Y-41310200D01*
X149621900Y-78060000D02*
X149621900Y-52598300D01*
X148470000Y-78060000D02*
X149621900Y-78060000D01*
%TO.N,/GPIO35*%
X138330000Y-116775100D02*
X141798800Y-120243900D01*
X138330000Y-91260000D02*
X138330000Y-116775100D01*
%TO.N,/GPIO34*%
X146290000Y-116753800D02*
X146290000Y-114575000D01*
X142093000Y-120950800D02*
X146290000Y-116753800D01*
X141439700Y-120950800D02*
X142093000Y-120950800D01*
X137060000Y-116571100D02*
X141439700Y-120950800D01*
X137060000Y-91260000D02*
X137060000Y-116571100D01*
%TO.N,/GPIO33*%
X140870000Y-108656000D02*
X140870000Y-91260000D01*
X142949900Y-110735900D02*
X140870000Y-108656000D01*
%TO.N,/GPIO32*%
X139600000Y-104807000D02*
X139054500Y-105352500D01*
X139600000Y-91260000D02*
X139600000Y-104807000D01*
%TO.N,/GPIO4*%
X152002200Y-40287800D02*
X151270000Y-40287800D01*
X152020000Y-40270000D02*
X152002200Y-40287800D01*
X149998600Y-39016400D02*
X151270000Y-40287800D01*
X145670000Y-39016400D02*
X149998600Y-39016400D01*
X145670000Y-72328100D02*
X145670000Y-39016400D01*
X145950000Y-72608100D02*
X145670000Y-72328100D01*
X143403600Y-36750000D02*
X138180000Y-36750000D01*
X145670000Y-39016400D02*
X143403600Y-36750000D01*
X145950000Y-73760000D02*
X145950000Y-72608100D01*
%TO.N,/MISO*%
X199700000Y-72370000D02*
X199700000Y-71118100D01*
X200290000Y-44440000D02*
X200290000Y-45691900D01*
X191570000Y-41516300D02*
X193735100Y-43681400D01*
X191570000Y-30980000D02*
X191570000Y-41516300D01*
X200810800Y-45691900D02*
X200290000Y-45691900D01*
X202182800Y-47063900D02*
X200810800Y-45691900D01*
X202182800Y-69156100D02*
X202182800Y-47063900D01*
X200220800Y-71118100D02*
X202182800Y-69156100D01*
X199700000Y-71118100D02*
X200220800Y-71118100D01*
X144680000Y-91260000D02*
X144680000Y-90108100D01*
X144424000Y-75733700D02*
X144045000Y-75354700D01*
X144424000Y-89852100D02*
X144424000Y-75733700D01*
X144680000Y-90108100D02*
X144424000Y-89852100D01*
%TO.N,/SCK*%
X145950000Y-93000000D02*
X145950000Y-91260000D01*
X145880000Y-93070000D02*
X145950000Y-93000000D01*
X194110000Y-30980000D02*
X194110000Y-32231900D01*
X200290000Y-49520000D02*
X200290000Y-48268100D01*
X148071900Y-42653800D02*
X146940000Y-41521900D01*
X148071900Y-75348400D02*
X148071900Y-42653800D01*
X146972700Y-76447600D02*
X148071900Y-75348400D01*
X146972700Y-87246500D02*
X146972700Y-76447600D01*
X146940000Y-40270000D02*
X146940000Y-41521900D01*
X194437000Y-32558900D02*
X194110000Y-32231900D01*
X194437000Y-43510500D02*
X194437000Y-32558900D01*
X197592300Y-46665700D02*
X194437000Y-43510500D01*
X196238300Y-48019700D02*
X197592300Y-46665700D01*
X196238300Y-69242800D02*
X196238300Y-48019700D01*
X197317200Y-70321700D02*
X196238300Y-69242800D01*
X199194600Y-48268100D02*
X197592300Y-46665700D01*
X200290000Y-48268100D02*
X199194600Y-48268100D01*
%TO.N,/MOSI*%
X148470000Y-86950000D02*
X149621900Y-86950000D01*
X152965000Y-83606900D02*
X152965000Y-81510000D01*
X149621900Y-86950000D02*
X152965000Y-83606900D01*
X162180000Y-40270000D02*
X162180000Y-41521900D01*
X196650000Y-43340000D02*
X200290000Y-46980000D01*
X196650000Y-30980000D02*
X196650000Y-43340000D01*
X200218800Y-66038100D02*
X199700000Y-66038100D01*
X201580900Y-64676000D02*
X200218800Y-66038100D01*
X201580900Y-48270900D02*
X201580900Y-64676000D01*
X200290000Y-46980000D02*
X201580900Y-48270900D01*
X199700000Y-67290000D02*
X199700000Y-66038100D01*
X113760000Y-39476800D02*
X113760000Y-30400000D01*
X115238900Y-40955700D02*
X113760000Y-39476800D01*
X153862900Y-49839000D02*
X153862900Y-50025300D01*
X162180000Y-41521900D02*
X153862900Y-49839000D01*
X152965000Y-50923200D02*
X153862900Y-50025300D01*
X152965000Y-81510000D02*
X152965000Y-50923200D01*
%TO.N,/DC*%
X140870000Y-45281800D02*
X144329000Y-41822800D01*
X140870000Y-73760000D02*
X140870000Y-45281800D01*
%TO.N,/RST*%
X133250000Y-70754700D02*
X134916000Y-69088700D01*
X133250000Y-73760000D02*
X133250000Y-70754700D01*
X167260000Y-62108800D02*
X167260000Y-40270000D01*
X165163900Y-64204900D02*
X167260000Y-62108800D01*
X165163900Y-64204900D02*
X167260000Y-62108800D01*
X167260000Y-62108800D02*
X165163900Y-64204900D01*
%TO.N,/CS*%
X137060000Y-69895700D02*
X137060000Y-73760000D01*
X137867000Y-69088700D02*
X137060000Y-69895700D01*
X169800000Y-61333600D02*
X164595200Y-66538400D01*
X169800000Y-40270000D02*
X169800000Y-61333600D01*
X164595200Y-66538400D02*
X169800000Y-61333600D01*
X169800000Y-61333600D02*
X164595200Y-66538400D01*
%TO.N,GND*%
X136525000Y-84715000D02*
X136525000Y-83952500D01*
X138050000Y-84715000D02*
X138050000Y-83952500D01*
X199578800Y-115071900D02*
X199060000Y-115071900D01*
X200349600Y-115842700D02*
X199578800Y-115071900D01*
X200349600Y-134922300D02*
X200349600Y-115842700D01*
X199391900Y-135880000D02*
X200349600Y-134922300D01*
X198390000Y-135880000D02*
X199391900Y-135880000D01*
X199060000Y-113820000D02*
X199060000Y-115071900D01*
X138812500Y-83190000D02*
X138812500Y-84715000D01*
X137287500Y-81665000D02*
X137287500Y-83190000D01*
X172340000Y-29635000D02*
X172500000Y-29475000D01*
X172340000Y-40270000D02*
X172340000Y-29635000D01*
X138050000Y-83190000D02*
X138050000Y-82427500D01*
X136525000Y-82427500D02*
X136525000Y-81665000D01*
X162290000Y-116050000D02*
X165390000Y-119150000D01*
X162290000Y-111625000D02*
X162290000Y-116050000D01*
X154410000Y-128080000D02*
X155715000Y-126775000D01*
X154410000Y-139870000D02*
X154410000Y-128080000D01*
X139575000Y-82427500D02*
X139575000Y-81665000D01*
X138050000Y-81665000D02*
X138050000Y-82427500D01*
X136525000Y-83190000D02*
X136525000Y-82427500D01*
X139575000Y-84715000D02*
X139575000Y-83952500D01*
X200808800Y-43151900D02*
X200290000Y-43151900D01*
X203758900Y-46102000D02*
X200808800Y-43151900D01*
X203758900Y-64448500D02*
X203758900Y-46102000D01*
X200290000Y-41900000D02*
X200290000Y-43151900D01*
X199221400Y-40648100D02*
X200290000Y-40648100D01*
X199038100Y-40464800D02*
X199221400Y-40648100D01*
X199038100Y-32383800D02*
X199038100Y-40464800D01*
X199190000Y-32231900D02*
X199038100Y-32383800D01*
X199190000Y-30980000D02*
X199190000Y-32231900D01*
X200290000Y-41900000D02*
X200290000Y-40648100D01*
X138812500Y-81665000D02*
X138812500Y-83190000D01*
X152790000Y-123850000D02*
X152790000Y-119075000D01*
X155715000Y-126775000D02*
X152790000Y-123850000D01*
X155790000Y-116075000D02*
X155790000Y-111625000D01*
X152790000Y-119075000D02*
X155790000Y-116075000D01*
X139575000Y-83190000D02*
X139575000Y-83952500D01*
X154560000Y-43427800D02*
X153603200Y-44384600D01*
X154560000Y-40270000D02*
X154560000Y-43427800D01*
X149046000Y-88220000D02*
X149621900Y-88220000D01*
X149046000Y-88220000D02*
X148470000Y-88220000D01*
X149622000Y-88220000D02*
X149621900Y-88220000D01*
X149622000Y-105457000D02*
X149622000Y-88220000D01*
X155790000Y-111625000D02*
X149622000Y-105457000D01*
X130710000Y-84531000D02*
X131412000Y-83829000D01*
X130710000Y-91260000D02*
X130710000Y-84531000D01*
X129994400Y-71892500D02*
X130710000Y-72608100D01*
X129994400Y-40955700D02*
X129994400Y-71892500D01*
X130710000Y-116805700D02*
X130710000Y-91260000D01*
X130633000Y-116882700D02*
X130710000Y-116805700D01*
X130710000Y-73334900D02*
X130710000Y-72608100D01*
X130710000Y-73334900D02*
X130710000Y-73760000D01*
X130710000Y-80666300D02*
X130088500Y-81287800D01*
X130710000Y-73760000D02*
X130710000Y-80666300D01*
X139575000Y-83190000D02*
X139575000Y-82427500D01*
X136525000Y-83190000D02*
X136525000Y-83952500D01*
%TO.N,VCC*%
X201730000Y-36668100D02*
X200290000Y-38108100D01*
X201730000Y-30980000D02*
X201730000Y-36668100D01*
X200290000Y-39360000D02*
X200290000Y-38108100D01*
X198440300Y-83350300D02*
X198820000Y-83730000D01*
X198440300Y-64173900D02*
X198440300Y-83350300D01*
X199152300Y-63461900D02*
X198440300Y-64173900D01*
X199700000Y-63461900D02*
X199152300Y-63461900D01*
X199700000Y-62210000D02*
X199700000Y-63461900D01*
X157765000Y-38353100D02*
X157100000Y-39018100D01*
X157765000Y-30850000D02*
X157765000Y-38353100D01*
X157100000Y-40270000D02*
X157100000Y-39018100D01*
X175040000Y-38858100D02*
X175040000Y-29475000D01*
X174880000Y-39018100D02*
X175040000Y-38858100D01*
X174880000Y-40270000D02*
X174880000Y-39018100D01*
X131980000Y-110468600D02*
X132945500Y-111434100D01*
X131980000Y-91260000D02*
X131980000Y-110468600D01*
X148598100Y-29183100D02*
X150265000Y-30850000D01*
X144431900Y-29183100D02*
X148598100Y-29183100D01*
X142765000Y-30850000D02*
X144431900Y-29183100D01*
X199060000Y-83970000D02*
X198820000Y-83730000D01*
X199060000Y-111280000D02*
X199060000Y-83970000D01*
X196942100Y-58200200D02*
X199700000Y-60958100D01*
X196942100Y-48382600D02*
X196942100Y-58200200D01*
X199700000Y-62210000D02*
X199700000Y-60958100D01*
%TO.N,/IR_LED*%
X124040000Y-37050000D02*
X124040000Y-35798100D01*
X127768200Y-32069900D02*
X124040000Y-35798100D01*
X127768200Y-31698000D02*
X127768200Y-32069900D01*
%TD*%
M02*
