%TF.GenerationSoftware,KiCad,Pcbnew,7.0.11+dfsg-1build4*%
%TF.CreationDate,2026-03-30T19:19:29+01:00*%
%TF.ProjectId,Specter_pcb,53706563-7465-4725-9f70-63622e6b6963,rev?*%
%TF.SameCoordinates,Original*%
%TF.FileFunction,Legend,Top*%
%TF.FilePolarity,Positive*%
%FSLAX46Y46*%
G04 Gerber Fmt 4.6, Leading zero omitted, Abs format (unit mm)*
G04 Created by KiCad (PCBNEW 7.0.11+dfsg-1build4) date 2026-03-30 19:19:29*
%MOMM*%
%LPD*%
G01*
G04 APERTURE LIST*
%ADD10C,0.150000*%
%ADD11C,0.120000*%
G04 APERTURE END LIST*
D10*
X203514819Y-31313333D02*
X204229104Y-31313333D01*
X204229104Y-31313333D02*
X204371961Y-31360952D01*
X204371961Y-31360952D02*
X204467200Y-31456190D01*
X204467200Y-31456190D02*
X204514819Y-31599047D01*
X204514819Y-31599047D02*
X204514819Y-31694285D01*
X203514819Y-30408571D02*
X203514819Y-30599047D01*
X203514819Y-30599047D02*
X203562438Y-30694285D01*
X203562438Y-30694285D02*
X203610057Y-30741904D01*
X203610057Y-30741904D02*
X203752914Y-30837142D01*
X203752914Y-30837142D02*
X203943390Y-30884761D01*
X203943390Y-30884761D02*
X204324342Y-30884761D01*
X204324342Y-30884761D02*
X204419580Y-30837142D01*
X204419580Y-30837142D02*
X204467200Y-30789523D01*
X204467200Y-30789523D02*
X204514819Y-30694285D01*
X204514819Y-30694285D02*
X204514819Y-30503809D01*
X204514819Y-30503809D02*
X204467200Y-30408571D01*
X204467200Y-30408571D02*
X204419580Y-30360952D01*
X204419580Y-30360952D02*
X204324342Y-30313333D01*
X204324342Y-30313333D02*
X204086247Y-30313333D01*
X204086247Y-30313333D02*
X203991009Y-30360952D01*
X203991009Y-30360952D02*
X203943390Y-30408571D01*
X203943390Y-30408571D02*
X203895771Y-30503809D01*
X203895771Y-30503809D02*
X203895771Y-30694285D01*
X203895771Y-30694285D02*
X203943390Y-30789523D01*
X203943390Y-30789523D02*
X203991009Y-30837142D01*
X203991009Y-30837142D02*
X204086247Y-30884761D01*
X116084819Y-37859523D02*
X116799104Y-37859523D01*
X116799104Y-37859523D02*
X116941961Y-37907142D01*
X116941961Y-37907142D02*
X117037200Y-38002380D01*
X117037200Y-38002380D02*
X117084819Y-38145237D01*
X117084819Y-38145237D02*
X117084819Y-38240475D01*
X117084819Y-36859523D02*
X117084819Y-37430951D01*
X117084819Y-37145237D02*
X116084819Y-37145237D01*
X116084819Y-37145237D02*
X116227676Y-37240475D01*
X116227676Y-37240475D02*
X116322914Y-37335713D01*
X116322914Y-37335713D02*
X116370533Y-37430951D01*
X116084819Y-36240475D02*
X116084819Y-36145237D01*
X116084819Y-36145237D02*
X116132438Y-36049999D01*
X116132438Y-36049999D02*
X116180057Y-36002380D01*
X116180057Y-36002380D02*
X116275295Y-35954761D01*
X116275295Y-35954761D02*
X116465771Y-35907142D01*
X116465771Y-35907142D02*
X116703866Y-35907142D01*
X116703866Y-35907142D02*
X116894342Y-35954761D01*
X116894342Y-35954761D02*
X116989580Y-36002380D01*
X116989580Y-36002380D02*
X117037200Y-36049999D01*
X117037200Y-36049999D02*
X117084819Y-36145237D01*
X117084819Y-36145237D02*
X117084819Y-36240475D01*
X117084819Y-36240475D02*
X117037200Y-36335713D01*
X117037200Y-36335713D02*
X116989580Y-36383332D01*
X116989580Y-36383332D02*
X116894342Y-36430951D01*
X116894342Y-36430951D02*
X116703866Y-36478570D01*
X116703866Y-36478570D02*
X116465771Y-36478570D01*
X116465771Y-36478570D02*
X116275295Y-36430951D01*
X116275295Y-36430951D02*
X116180057Y-36383332D01*
X116180057Y-36383332D02*
X116132438Y-36335713D01*
X116132438Y-36335713D02*
X116084819Y-36240475D01*
X110296666Y-111384819D02*
X110296666Y-112099104D01*
X110296666Y-112099104D02*
X110249047Y-112241961D01*
X110249047Y-112241961D02*
X110153809Y-112337200D01*
X110153809Y-112337200D02*
X110010952Y-112384819D01*
X110010952Y-112384819D02*
X109915714Y-112384819D01*
X110820476Y-112384819D02*
X111010952Y-112384819D01*
X111010952Y-112384819D02*
X111106190Y-112337200D01*
X111106190Y-112337200D02*
X111153809Y-112289580D01*
X111153809Y-112289580D02*
X111249047Y-112146723D01*
X111249047Y-112146723D02*
X111296666Y-111956247D01*
X111296666Y-111956247D02*
X111296666Y-111575295D01*
X111296666Y-111575295D02*
X111249047Y-111480057D01*
X111249047Y-111480057D02*
X111201428Y-111432438D01*
X111201428Y-111432438D02*
X111106190Y-111384819D01*
X111106190Y-111384819D02*
X110915714Y-111384819D01*
X110915714Y-111384819D02*
X110820476Y-111432438D01*
X110820476Y-111432438D02*
X110772857Y-111480057D01*
X110772857Y-111480057D02*
X110725238Y-111575295D01*
X110725238Y-111575295D02*
X110725238Y-111813390D01*
X110725238Y-111813390D02*
X110772857Y-111908628D01*
X110772857Y-111908628D02*
X110820476Y-111956247D01*
X110820476Y-111956247D02*
X110915714Y-112003866D01*
X110915714Y-112003866D02*
X111106190Y-112003866D01*
X111106190Y-112003866D02*
X111201428Y-111956247D01*
X111201428Y-111956247D02*
X111249047Y-111908628D01*
X111249047Y-111908628D02*
X111296666Y-111813390D01*
X198726666Y-108404819D02*
X198726666Y-109119104D01*
X198726666Y-109119104D02*
X198679047Y-109261961D01*
X198679047Y-109261961D02*
X198583809Y-109357200D01*
X198583809Y-109357200D02*
X198440952Y-109404819D01*
X198440952Y-109404819D02*
X198345714Y-109404819D01*
X199345714Y-108833390D02*
X199250476Y-108785771D01*
X199250476Y-108785771D02*
X199202857Y-108738152D01*
X199202857Y-108738152D02*
X199155238Y-108642914D01*
X199155238Y-108642914D02*
X199155238Y-108595295D01*
X199155238Y-108595295D02*
X199202857Y-108500057D01*
X199202857Y-108500057D02*
X199250476Y-108452438D01*
X199250476Y-108452438D02*
X199345714Y-108404819D01*
X199345714Y-108404819D02*
X199536190Y-108404819D01*
X199536190Y-108404819D02*
X199631428Y-108452438D01*
X199631428Y-108452438D02*
X199679047Y-108500057D01*
X199679047Y-108500057D02*
X199726666Y-108595295D01*
X199726666Y-108595295D02*
X199726666Y-108642914D01*
X199726666Y-108642914D02*
X199679047Y-108738152D01*
X199679047Y-108738152D02*
X199631428Y-108785771D01*
X199631428Y-108785771D02*
X199536190Y-108833390D01*
X199536190Y-108833390D02*
X199345714Y-108833390D01*
X199345714Y-108833390D02*
X199250476Y-108881009D01*
X199250476Y-108881009D02*
X199202857Y-108928628D01*
X199202857Y-108928628D02*
X199155238Y-109023866D01*
X199155238Y-109023866D02*
X199155238Y-109214342D01*
X199155238Y-109214342D02*
X199202857Y-109309580D01*
X199202857Y-109309580D02*
X199250476Y-109357200D01*
X199250476Y-109357200D02*
X199345714Y-109404819D01*
X199345714Y-109404819D02*
X199536190Y-109404819D01*
X199536190Y-109404819D02*
X199631428Y-109357200D01*
X199631428Y-109357200D02*
X199679047Y-109309580D01*
X199679047Y-109309580D02*
X199726666Y-109214342D01*
X199726666Y-109214342D02*
X199726666Y-109023866D01*
X199726666Y-109023866D02*
X199679047Y-108928628D01*
X199679047Y-108928628D02*
X199631428Y-108881009D01*
X199631428Y-108881009D02*
X199536190Y-108833390D01*
X199366666Y-59334819D02*
X199366666Y-60049104D01*
X199366666Y-60049104D02*
X199319047Y-60191961D01*
X199319047Y-60191961D02*
X199223809Y-60287200D01*
X199223809Y-60287200D02*
X199080952Y-60334819D01*
X199080952Y-60334819D02*
X198985714Y-60334819D01*
X199747619Y-59334819D02*
X200414285Y-59334819D01*
X200414285Y-59334819D02*
X199985714Y-60334819D01*
X105804819Y-30733333D02*
X106519104Y-30733333D01*
X106519104Y-30733333D02*
X106661961Y-30780952D01*
X106661961Y-30780952D02*
X106757200Y-30876190D01*
X106757200Y-30876190D02*
X106804819Y-31019047D01*
X106804819Y-31019047D02*
X106804819Y-31114285D01*
X105804819Y-29780952D02*
X105804819Y-30257142D01*
X105804819Y-30257142D02*
X106281009Y-30304761D01*
X106281009Y-30304761D02*
X106233390Y-30257142D01*
X106233390Y-30257142D02*
X106185771Y-30161904D01*
X106185771Y-30161904D02*
X106185771Y-29923809D01*
X106185771Y-29923809D02*
X106233390Y-29828571D01*
X106233390Y-29828571D02*
X106281009Y-29780952D01*
X106281009Y-29780952D02*
X106376247Y-29733333D01*
X106376247Y-29733333D02*
X106614342Y-29733333D01*
X106614342Y-29733333D02*
X106709580Y-29780952D01*
X106709580Y-29780952D02*
X106757200Y-29828571D01*
X106757200Y-29828571D02*
X106804819Y-29923809D01*
X106804819Y-29923809D02*
X106804819Y-30161904D01*
X106804819Y-30161904D02*
X106757200Y-30257142D01*
X106757200Y-30257142D02*
X106709580Y-30304761D01*
X171698095Y-26529819D02*
X171698095Y-27339342D01*
X171698095Y-27339342D02*
X171745714Y-27434580D01*
X171745714Y-27434580D02*
X171793333Y-27482200D01*
X171793333Y-27482200D02*
X171888571Y-27529819D01*
X171888571Y-27529819D02*
X172079047Y-27529819D01*
X172079047Y-27529819D02*
X172174285Y-27482200D01*
X172174285Y-27482200D02*
X172221904Y-27434580D01*
X172221904Y-27434580D02*
X172269523Y-27339342D01*
X172269523Y-27339342D02*
X172269523Y-26529819D01*
X173269523Y-27529819D02*
X172698095Y-27529819D01*
X172983809Y-27529819D02*
X172983809Y-26529819D01*
X172983809Y-26529819D02*
X172888571Y-26672676D01*
X172888571Y-26672676D02*
X172793333Y-26767914D01*
X172793333Y-26767914D02*
X172698095Y-26815533D01*
X163814819Y-140203333D02*
X164529104Y-140203333D01*
X164529104Y-140203333D02*
X164671961Y-140250952D01*
X164671961Y-140250952D02*
X164767200Y-140346190D01*
X164767200Y-140346190D02*
X164814819Y-140489047D01*
X164814819Y-140489047D02*
X164814819Y-140584285D01*
X163910057Y-139774761D02*
X163862438Y-139727142D01*
X163862438Y-139727142D02*
X163814819Y-139631904D01*
X163814819Y-139631904D02*
X163814819Y-139393809D01*
X163814819Y-139393809D02*
X163862438Y-139298571D01*
X163862438Y-139298571D02*
X163910057Y-139250952D01*
X163910057Y-139250952D02*
X164005295Y-139203333D01*
X164005295Y-139203333D02*
X164100533Y-139203333D01*
X164100533Y-139203333D02*
X164243390Y-139250952D01*
X164243390Y-139250952D02*
X164814819Y-139822380D01*
X164814819Y-139822380D02*
X164814819Y-139203333D01*
X134203333Y-34834819D02*
X133870000Y-34358628D01*
X133631905Y-34834819D02*
X133631905Y-33834819D01*
X133631905Y-33834819D02*
X134012857Y-33834819D01*
X134012857Y-33834819D02*
X134108095Y-33882438D01*
X134108095Y-33882438D02*
X134155714Y-33930057D01*
X134155714Y-33930057D02*
X134203333Y-34025295D01*
X134203333Y-34025295D02*
X134203333Y-34168152D01*
X134203333Y-34168152D02*
X134155714Y-34263390D01*
X134155714Y-34263390D02*
X134108095Y-34311009D01*
X134108095Y-34311009D02*
X134012857Y-34358628D01*
X134012857Y-34358628D02*
X133631905Y-34358628D01*
X135155714Y-34834819D02*
X134584286Y-34834819D01*
X134870000Y-34834819D02*
X134870000Y-33834819D01*
X134870000Y-33834819D02*
X134774762Y-33977676D01*
X134774762Y-33977676D02*
X134679524Y-34072914D01*
X134679524Y-34072914D02*
X134584286Y-34120533D01*
X197056666Y-132784819D02*
X197056666Y-133499104D01*
X197056666Y-133499104D02*
X197009047Y-133641961D01*
X197009047Y-133641961D02*
X196913809Y-133737200D01*
X196913809Y-133737200D02*
X196770952Y-133784819D01*
X196770952Y-133784819D02*
X196675714Y-133784819D01*
X197437619Y-132784819D02*
X198056666Y-132784819D01*
X198056666Y-132784819D02*
X197723333Y-133165771D01*
X197723333Y-133165771D02*
X197866190Y-133165771D01*
X197866190Y-133165771D02*
X197961428Y-133213390D01*
X197961428Y-133213390D02*
X198009047Y-133261009D01*
X198009047Y-133261009D02*
X198056666Y-133356247D01*
X198056666Y-133356247D02*
X198056666Y-133594342D01*
X198056666Y-133594342D02*
X198009047Y-133689580D01*
X198009047Y-133689580D02*
X197961428Y-133737200D01*
X197961428Y-133737200D02*
X197866190Y-133784819D01*
X197866190Y-133784819D02*
X197580476Y-133784819D01*
X197580476Y-133784819D02*
X197485238Y-133737200D01*
X197485238Y-133737200D02*
X197437619Y-133689580D01*
X197486667Y-81687200D02*
X197629524Y-81734819D01*
X197629524Y-81734819D02*
X197867619Y-81734819D01*
X197867619Y-81734819D02*
X197962857Y-81687200D01*
X197962857Y-81687200D02*
X198010476Y-81639580D01*
X198010476Y-81639580D02*
X198058095Y-81544342D01*
X198058095Y-81544342D02*
X198058095Y-81449104D01*
X198058095Y-81449104D02*
X198010476Y-81353866D01*
X198010476Y-81353866D02*
X197962857Y-81306247D01*
X197962857Y-81306247D02*
X197867619Y-81258628D01*
X197867619Y-81258628D02*
X197677143Y-81211009D01*
X197677143Y-81211009D02*
X197581905Y-81163390D01*
X197581905Y-81163390D02*
X197534286Y-81115771D01*
X197534286Y-81115771D02*
X197486667Y-81020533D01*
X197486667Y-81020533D02*
X197486667Y-80925295D01*
X197486667Y-80925295D02*
X197534286Y-80830057D01*
X197534286Y-80830057D02*
X197581905Y-80782438D01*
X197581905Y-80782438D02*
X197677143Y-80734819D01*
X197677143Y-80734819D02*
X197915238Y-80734819D01*
X197915238Y-80734819D02*
X198058095Y-80782438D01*
X198391429Y-80734819D02*
X198629524Y-81734819D01*
X198629524Y-81734819D02*
X198820000Y-81020533D01*
X198820000Y-81020533D02*
X199010476Y-81734819D01*
X199010476Y-81734819D02*
X199248572Y-80734819D01*
X200105714Y-80734819D02*
X199629524Y-80734819D01*
X199629524Y-80734819D02*
X199581905Y-81211009D01*
X199581905Y-81211009D02*
X199629524Y-81163390D01*
X199629524Y-81163390D02*
X199724762Y-81115771D01*
X199724762Y-81115771D02*
X199962857Y-81115771D01*
X199962857Y-81115771D02*
X200058095Y-81163390D01*
X200058095Y-81163390D02*
X200105714Y-81211009D01*
X200105714Y-81211009D02*
X200153333Y-81306247D01*
X200153333Y-81306247D02*
X200153333Y-81544342D01*
X200153333Y-81544342D02*
X200105714Y-81639580D01*
X200105714Y-81639580D02*
X200058095Y-81687200D01*
X200058095Y-81687200D02*
X199962857Y-81734819D01*
X199962857Y-81734819D02*
X199724762Y-81734819D01*
X199724762Y-81734819D02*
X199629524Y-81687200D01*
X199629524Y-81687200D02*
X199581905Y-81639580D01*
X146628095Y-92574819D02*
X146628095Y-93384342D01*
X146628095Y-93384342D02*
X146675714Y-93479580D01*
X146675714Y-93479580D02*
X146723333Y-93527200D01*
X146723333Y-93527200D02*
X146818571Y-93574819D01*
X146818571Y-93574819D02*
X147009047Y-93574819D01*
X147009047Y-93574819D02*
X147104285Y-93527200D01*
X147104285Y-93527200D02*
X147151904Y-93479580D01*
X147151904Y-93479580D02*
X147199523Y-93384342D01*
X147199523Y-93384342D02*
X147199523Y-92574819D01*
X147628095Y-92670057D02*
X147675714Y-92622438D01*
X147675714Y-92622438D02*
X147770952Y-92574819D01*
X147770952Y-92574819D02*
X148009047Y-92574819D01*
X148009047Y-92574819D02*
X148104285Y-92622438D01*
X148104285Y-92622438D02*
X148151904Y-92670057D01*
X148151904Y-92670057D02*
X148199523Y-92765295D01*
X148199523Y-92765295D02*
X148199523Y-92860533D01*
X148199523Y-92860533D02*
X148151904Y-93003390D01*
X148151904Y-93003390D02*
X147580476Y-93574819D01*
X147580476Y-93574819D02*
X148199523Y-93574819D01*
X176664819Y-40603333D02*
X177379104Y-40603333D01*
X177379104Y-40603333D02*
X177521961Y-40650952D01*
X177521961Y-40650952D02*
X177617200Y-40746190D01*
X177617200Y-40746190D02*
X177664819Y-40889047D01*
X177664819Y-40889047D02*
X177664819Y-40984285D01*
X177664819Y-39603333D02*
X177664819Y-40174761D01*
X177664819Y-39889047D02*
X176664819Y-39889047D01*
X176664819Y-39889047D02*
X176807676Y-39984285D01*
X176807676Y-39984285D02*
X176902914Y-40079523D01*
X176902914Y-40079523D02*
X176950533Y-40174761D01*
X148426667Y-112972200D02*
X148569524Y-113019819D01*
X148569524Y-113019819D02*
X148807619Y-113019819D01*
X148807619Y-113019819D02*
X148902857Y-112972200D01*
X148902857Y-112972200D02*
X148950476Y-112924580D01*
X148950476Y-112924580D02*
X148998095Y-112829342D01*
X148998095Y-112829342D02*
X148998095Y-112734104D01*
X148998095Y-112734104D02*
X148950476Y-112638866D01*
X148950476Y-112638866D02*
X148902857Y-112591247D01*
X148902857Y-112591247D02*
X148807619Y-112543628D01*
X148807619Y-112543628D02*
X148617143Y-112496009D01*
X148617143Y-112496009D02*
X148521905Y-112448390D01*
X148521905Y-112448390D02*
X148474286Y-112400771D01*
X148474286Y-112400771D02*
X148426667Y-112305533D01*
X148426667Y-112305533D02*
X148426667Y-112210295D01*
X148426667Y-112210295D02*
X148474286Y-112115057D01*
X148474286Y-112115057D02*
X148521905Y-112067438D01*
X148521905Y-112067438D02*
X148617143Y-112019819D01*
X148617143Y-112019819D02*
X148855238Y-112019819D01*
X148855238Y-112019819D02*
X148998095Y-112067438D01*
X149331429Y-112019819D02*
X149569524Y-113019819D01*
X149569524Y-113019819D02*
X149760000Y-112305533D01*
X149760000Y-112305533D02*
X149950476Y-113019819D01*
X149950476Y-113019819D02*
X150188572Y-112019819D01*
X150474286Y-112019819D02*
X151093333Y-112019819D01*
X151093333Y-112019819D02*
X150760000Y-112400771D01*
X150760000Y-112400771D02*
X150902857Y-112400771D01*
X150902857Y-112400771D02*
X150998095Y-112448390D01*
X150998095Y-112448390D02*
X151045714Y-112496009D01*
X151045714Y-112496009D02*
X151093333Y-112591247D01*
X151093333Y-112591247D02*
X151093333Y-112829342D01*
X151093333Y-112829342D02*
X151045714Y-112924580D01*
X151045714Y-112924580D02*
X150998095Y-112972200D01*
X150998095Y-112972200D02*
X150902857Y-113019819D01*
X150902857Y-113019819D02*
X150617143Y-113019819D01*
X150617143Y-113019819D02*
X150521905Y-112972200D01*
X150521905Y-112972200D02*
X150474286Y-112924580D01*
X157706667Y-105532200D02*
X157849524Y-105579819D01*
X157849524Y-105579819D02*
X158087619Y-105579819D01*
X158087619Y-105579819D02*
X158182857Y-105532200D01*
X158182857Y-105532200D02*
X158230476Y-105484580D01*
X158230476Y-105484580D02*
X158278095Y-105389342D01*
X158278095Y-105389342D02*
X158278095Y-105294104D01*
X158278095Y-105294104D02*
X158230476Y-105198866D01*
X158230476Y-105198866D02*
X158182857Y-105151247D01*
X158182857Y-105151247D02*
X158087619Y-105103628D01*
X158087619Y-105103628D02*
X157897143Y-105056009D01*
X157897143Y-105056009D02*
X157801905Y-105008390D01*
X157801905Y-105008390D02*
X157754286Y-104960771D01*
X157754286Y-104960771D02*
X157706667Y-104865533D01*
X157706667Y-104865533D02*
X157706667Y-104770295D01*
X157706667Y-104770295D02*
X157754286Y-104675057D01*
X157754286Y-104675057D02*
X157801905Y-104627438D01*
X157801905Y-104627438D02*
X157897143Y-104579819D01*
X157897143Y-104579819D02*
X158135238Y-104579819D01*
X158135238Y-104579819D02*
X158278095Y-104627438D01*
X158611429Y-104579819D02*
X158849524Y-105579819D01*
X158849524Y-105579819D02*
X159040000Y-104865533D01*
X159040000Y-104865533D02*
X159230476Y-105579819D01*
X159230476Y-105579819D02*
X159468572Y-104579819D01*
X160373333Y-105579819D02*
X159801905Y-105579819D01*
X160087619Y-105579819D02*
X160087619Y-104579819D01*
X160087619Y-104579819D02*
X159992381Y-104722676D01*
X159992381Y-104722676D02*
X159897143Y-104817914D01*
X159897143Y-104817914D02*
X159801905Y-104865533D01*
X167256667Y-112307200D02*
X167399524Y-112354819D01*
X167399524Y-112354819D02*
X167637619Y-112354819D01*
X167637619Y-112354819D02*
X167732857Y-112307200D01*
X167732857Y-112307200D02*
X167780476Y-112259580D01*
X167780476Y-112259580D02*
X167828095Y-112164342D01*
X167828095Y-112164342D02*
X167828095Y-112069104D01*
X167828095Y-112069104D02*
X167780476Y-111973866D01*
X167780476Y-111973866D02*
X167732857Y-111926247D01*
X167732857Y-111926247D02*
X167637619Y-111878628D01*
X167637619Y-111878628D02*
X167447143Y-111831009D01*
X167447143Y-111831009D02*
X167351905Y-111783390D01*
X167351905Y-111783390D02*
X167304286Y-111735771D01*
X167304286Y-111735771D02*
X167256667Y-111640533D01*
X167256667Y-111640533D02*
X167256667Y-111545295D01*
X167256667Y-111545295D02*
X167304286Y-111450057D01*
X167304286Y-111450057D02*
X167351905Y-111402438D01*
X167351905Y-111402438D02*
X167447143Y-111354819D01*
X167447143Y-111354819D02*
X167685238Y-111354819D01*
X167685238Y-111354819D02*
X167828095Y-111402438D01*
X168161429Y-111354819D02*
X168399524Y-112354819D01*
X168399524Y-112354819D02*
X168590000Y-111640533D01*
X168590000Y-111640533D02*
X168780476Y-112354819D01*
X168780476Y-112354819D02*
X169018572Y-111354819D01*
X169351905Y-111450057D02*
X169399524Y-111402438D01*
X169399524Y-111402438D02*
X169494762Y-111354819D01*
X169494762Y-111354819D02*
X169732857Y-111354819D01*
X169732857Y-111354819D02*
X169828095Y-111402438D01*
X169828095Y-111402438D02*
X169875714Y-111450057D01*
X169875714Y-111450057D02*
X169923333Y-111545295D01*
X169923333Y-111545295D02*
X169923333Y-111640533D01*
X169923333Y-111640533D02*
X169875714Y-111783390D01*
X169875714Y-111783390D02*
X169304286Y-112354819D01*
X169304286Y-112354819D02*
X169923333Y-112354819D01*
X199956666Y-36484819D02*
X199956666Y-37199104D01*
X199956666Y-37199104D02*
X199909047Y-37341961D01*
X199909047Y-37341961D02*
X199813809Y-37437200D01*
X199813809Y-37437200D02*
X199670952Y-37484819D01*
X199670952Y-37484819D02*
X199575714Y-37484819D01*
X200861428Y-36818152D02*
X200861428Y-37484819D01*
X200623333Y-36437200D02*
X200385238Y-37151485D01*
X200385238Y-37151485D02*
X201004285Y-37151485D01*
X163256905Y-27344819D02*
X163256905Y-26344819D01*
X163256905Y-26344819D02*
X163495000Y-26344819D01*
X163495000Y-26344819D02*
X163637857Y-26392438D01*
X163637857Y-26392438D02*
X163733095Y-26487676D01*
X163733095Y-26487676D02*
X163780714Y-26582914D01*
X163780714Y-26582914D02*
X163828333Y-26773390D01*
X163828333Y-26773390D02*
X163828333Y-26916247D01*
X163828333Y-26916247D02*
X163780714Y-27106723D01*
X163780714Y-27106723D02*
X163733095Y-27201961D01*
X163733095Y-27201961D02*
X163637857Y-27297200D01*
X163637857Y-27297200D02*
X163495000Y-27344819D01*
X163495000Y-27344819D02*
X163256905Y-27344819D01*
X164685476Y-26678152D02*
X164685476Y-27344819D01*
X164447381Y-26297200D02*
X164209286Y-27011485D01*
X164209286Y-27011485D02*
X164828333Y-27011485D01*
X157631667Y-120682200D02*
X157774524Y-120729819D01*
X157774524Y-120729819D02*
X158012619Y-120729819D01*
X158012619Y-120729819D02*
X158107857Y-120682200D01*
X158107857Y-120682200D02*
X158155476Y-120634580D01*
X158155476Y-120634580D02*
X158203095Y-120539342D01*
X158203095Y-120539342D02*
X158203095Y-120444104D01*
X158203095Y-120444104D02*
X158155476Y-120348866D01*
X158155476Y-120348866D02*
X158107857Y-120301247D01*
X158107857Y-120301247D02*
X158012619Y-120253628D01*
X158012619Y-120253628D02*
X157822143Y-120206009D01*
X157822143Y-120206009D02*
X157726905Y-120158390D01*
X157726905Y-120158390D02*
X157679286Y-120110771D01*
X157679286Y-120110771D02*
X157631667Y-120015533D01*
X157631667Y-120015533D02*
X157631667Y-119920295D01*
X157631667Y-119920295D02*
X157679286Y-119825057D01*
X157679286Y-119825057D02*
X157726905Y-119777438D01*
X157726905Y-119777438D02*
X157822143Y-119729819D01*
X157822143Y-119729819D02*
X158060238Y-119729819D01*
X158060238Y-119729819D02*
X158203095Y-119777438D01*
X158536429Y-119729819D02*
X158774524Y-120729819D01*
X158774524Y-120729819D02*
X158965000Y-120015533D01*
X158965000Y-120015533D02*
X159155476Y-120729819D01*
X159155476Y-120729819D02*
X159393572Y-119729819D01*
X160203095Y-120063152D02*
X160203095Y-120729819D01*
X159965000Y-119682200D02*
X159726905Y-120396485D01*
X159726905Y-120396485D02*
X160345952Y-120396485D01*
X148256905Y-27344819D02*
X148256905Y-26344819D01*
X148256905Y-26344819D02*
X148495000Y-26344819D01*
X148495000Y-26344819D02*
X148637857Y-26392438D01*
X148637857Y-26392438D02*
X148733095Y-26487676D01*
X148733095Y-26487676D02*
X148780714Y-26582914D01*
X148780714Y-26582914D02*
X148828333Y-26773390D01*
X148828333Y-26773390D02*
X148828333Y-26916247D01*
X148828333Y-26916247D02*
X148780714Y-27106723D01*
X148780714Y-27106723D02*
X148733095Y-27201961D01*
X148733095Y-27201961D02*
X148637857Y-27297200D01*
X148637857Y-27297200D02*
X148495000Y-27344819D01*
X148495000Y-27344819D02*
X148256905Y-27344819D01*
X149209286Y-26440057D02*
X149256905Y-26392438D01*
X149256905Y-26392438D02*
X149352143Y-26344819D01*
X149352143Y-26344819D02*
X149590238Y-26344819D01*
X149590238Y-26344819D02*
X149685476Y-26392438D01*
X149685476Y-26392438D02*
X149733095Y-26440057D01*
X149733095Y-26440057D02*
X149780714Y-26535295D01*
X149780714Y-26535295D02*
X149780714Y-26630533D01*
X149780714Y-26630533D02*
X149733095Y-26773390D01*
X149733095Y-26773390D02*
X149161667Y-27344819D01*
X149161667Y-27344819D02*
X149780714Y-27344819D01*
X155756905Y-27344819D02*
X155756905Y-26344819D01*
X155756905Y-26344819D02*
X155995000Y-26344819D01*
X155995000Y-26344819D02*
X156137857Y-26392438D01*
X156137857Y-26392438D02*
X156233095Y-26487676D01*
X156233095Y-26487676D02*
X156280714Y-26582914D01*
X156280714Y-26582914D02*
X156328333Y-26773390D01*
X156328333Y-26773390D02*
X156328333Y-26916247D01*
X156328333Y-26916247D02*
X156280714Y-27106723D01*
X156280714Y-27106723D02*
X156233095Y-27201961D01*
X156233095Y-27201961D02*
X156137857Y-27297200D01*
X156137857Y-27297200D02*
X155995000Y-27344819D01*
X155995000Y-27344819D02*
X155756905Y-27344819D01*
X156661667Y-26344819D02*
X157280714Y-26344819D01*
X157280714Y-26344819D02*
X156947381Y-26725771D01*
X156947381Y-26725771D02*
X157090238Y-26725771D01*
X157090238Y-26725771D02*
X157185476Y-26773390D01*
X157185476Y-26773390D02*
X157233095Y-26821009D01*
X157233095Y-26821009D02*
X157280714Y-26916247D01*
X157280714Y-26916247D02*
X157280714Y-27154342D01*
X157280714Y-27154342D02*
X157233095Y-27249580D01*
X157233095Y-27249580D02*
X157185476Y-27297200D01*
X157185476Y-27297200D02*
X157090238Y-27344819D01*
X157090238Y-27344819D02*
X156804524Y-27344819D01*
X156804524Y-27344819D02*
X156709286Y-27297200D01*
X156709286Y-27297200D02*
X156661667Y-27249580D01*
X140756905Y-27344819D02*
X140756905Y-26344819D01*
X140756905Y-26344819D02*
X140995000Y-26344819D01*
X140995000Y-26344819D02*
X141137857Y-26392438D01*
X141137857Y-26392438D02*
X141233095Y-26487676D01*
X141233095Y-26487676D02*
X141280714Y-26582914D01*
X141280714Y-26582914D02*
X141328333Y-26773390D01*
X141328333Y-26773390D02*
X141328333Y-26916247D01*
X141328333Y-26916247D02*
X141280714Y-27106723D01*
X141280714Y-27106723D02*
X141233095Y-27201961D01*
X141233095Y-27201961D02*
X141137857Y-27297200D01*
X141137857Y-27297200D02*
X140995000Y-27344819D01*
X140995000Y-27344819D02*
X140756905Y-27344819D01*
X142280714Y-27344819D02*
X141709286Y-27344819D01*
X141995000Y-27344819D02*
X141995000Y-26344819D01*
X141995000Y-26344819D02*
X141899762Y-26487676D01*
X141899762Y-26487676D02*
X141804524Y-26582914D01*
X141804524Y-26582914D02*
X141709286Y-26630533D01*
D11*
%TO.C,J6*%
X200460000Y-29650000D02*
X200460000Y-32310000D01*
X182620000Y-29650000D02*
X182620000Y-32310000D01*
X200460000Y-29650000D02*
X182620000Y-29650000D01*
X201730000Y-29650000D02*
X203060000Y-29650000D01*
X200460000Y-32310000D02*
X182620000Y-32310000D01*
X203060000Y-29650000D02*
X203060000Y-30980000D01*
%TO.C,J10*%
X125370000Y-38380000D02*
X125370000Y-35720000D01*
X120230000Y-38380000D02*
X125370000Y-38380000D01*
X118960000Y-38380000D02*
X117630000Y-38380000D01*
X120230000Y-35720000D02*
X125370000Y-35720000D01*
X117630000Y-38380000D02*
X117630000Y-37050000D01*
X120230000Y-38380000D02*
X120230000Y-35720000D01*
%TO.C,J9*%
X109300000Y-115530000D02*
X109300000Y-123210000D01*
X109300000Y-112930000D02*
X110630000Y-112930000D01*
X109300000Y-115530000D02*
X111960000Y-115530000D01*
X109300000Y-123210000D02*
X111960000Y-123210000D01*
X109300000Y-114260000D02*
X109300000Y-112930000D01*
X111960000Y-115530000D02*
X111960000Y-123210000D01*
%TO.C,J8*%
X197730000Y-112550000D02*
X197730000Y-120230000D01*
X197730000Y-109950000D02*
X199060000Y-109950000D01*
X197730000Y-112550000D02*
X200390000Y-112550000D01*
X197730000Y-120230000D02*
X200390000Y-120230000D01*
X197730000Y-111280000D02*
X197730000Y-109950000D01*
X200390000Y-112550000D02*
X200390000Y-120230000D01*
%TO.C,J7*%
X201030000Y-63480000D02*
X201030000Y-76240000D01*
X198370000Y-76240000D02*
X201030000Y-76240000D01*
X198370000Y-63480000D02*
X201030000Y-63480000D01*
X198370000Y-60880000D02*
X199700000Y-60880000D01*
X198370000Y-62210000D02*
X198370000Y-60880000D01*
X198370000Y-63480000D02*
X198370000Y-76240000D01*
%TO.C,J5*%
X109950000Y-31730000D02*
X109950000Y-29070000D01*
X127790000Y-31730000D02*
X127790000Y-29070000D01*
X109950000Y-31730000D02*
X127790000Y-31730000D01*
X108680000Y-31730000D02*
X107350000Y-31730000D01*
X109950000Y-29070000D02*
X127790000Y-29070000D01*
X107350000Y-31730000D02*
X107350000Y-30400000D01*
%TO.C,U1*%
X175100000Y-27965000D02*
X172500000Y-27965000D01*
X175100000Y-28315000D02*
X175100000Y-27965000D01*
X175100000Y-30635000D02*
X175100000Y-30975000D01*
X175100000Y-30975000D02*
X170010000Y-30975000D01*
X170400084Y-30976736D02*
G75*
G03*
X174599999Y-30975000I2099916J101736D01*
G01*
%TO.C,J2*%
X163360000Y-138540000D02*
X163360000Y-139870000D01*
X162030000Y-138540000D02*
X163360000Y-138540000D01*
X160760000Y-138540000D02*
X148000000Y-138540000D01*
X160760000Y-138540000D02*
X160760000Y-141200000D01*
X148000000Y-138540000D02*
X148000000Y-141200000D01*
X160760000Y-141200000D02*
X148000000Y-141200000D01*
%TO.C,R1*%
X131100000Y-35380000D02*
X137640000Y-35380000D01*
X131100000Y-35710000D02*
X131100000Y-35380000D01*
X131100000Y-37790000D02*
X131100000Y-38120000D01*
X131100000Y-38120000D02*
X137640000Y-38120000D01*
X137640000Y-35380000D02*
X137640000Y-35710000D01*
X137640000Y-38120000D02*
X137640000Y-37790000D01*
%TO.C,J3*%
X194330000Y-134420000D02*
X194330000Y-142240000D01*
X194330000Y-136020000D02*
X195250000Y-136020000D01*
X194330000Y-142240000D02*
X200450000Y-142240000D01*
X195090000Y-138380000D02*
X195090000Y-139980000D01*
X195090000Y-139980000D02*
X196090000Y-139980000D01*
X195250000Y-134420000D02*
X194330000Y-134420000D01*
X195250000Y-136020000D02*
X195250000Y-134420000D01*
X195530000Y-136020000D02*
X195250000Y-136020000D01*
X195530000Y-136020000D02*
X195530000Y-134805000D01*
X195590000Y-139980000D02*
X195590000Y-142240000D01*
X196090000Y-138380000D02*
X195090000Y-138380000D01*
X196090000Y-139980000D02*
X196090000Y-138380000D01*
X196090000Y-139980000D02*
X196090000Y-142240000D01*
X196890000Y-137880000D02*
X197890000Y-137880000D01*
X196890000Y-142240000D02*
X196890000Y-137880000D01*
X197890000Y-137880000D02*
X197890000Y-142240000D01*
X198690000Y-138380000D02*
X199690000Y-138380000D01*
X198690000Y-139980000D02*
X198690000Y-138380000D01*
X199530000Y-134420000D02*
X199530000Y-136020000D01*
X199530000Y-136020000D02*
X199250000Y-136020000D01*
X199690000Y-138380000D02*
X199690000Y-139980000D01*
X199690000Y-139980000D02*
X198690000Y-139980000D01*
X200450000Y-134420000D02*
X199530000Y-134420000D01*
X200450000Y-136020000D02*
X199530000Y-136020000D01*
X200450000Y-142240000D02*
X200450000Y-134420000D01*
%TO.C,SW5*%
X194320000Y-84520000D02*
X194320000Y-97790000D01*
X194320000Y-97790000D02*
X194970000Y-97790000D01*
X194970000Y-97790000D02*
X194970000Y-104090000D01*
X194970000Y-104090000D02*
X202670000Y-104090000D01*
X195420000Y-83620000D02*
X194320000Y-83620000D01*
X197120000Y-83620000D02*
X197970000Y-83620000D01*
X199670000Y-83620000D02*
X200520000Y-83620000D01*
X202670000Y-97790000D02*
X203320000Y-97790000D01*
X202670000Y-104090000D02*
X202670000Y-97790000D01*
X203320000Y-83620000D02*
X202220000Y-83620000D01*
X203320000Y-97790000D02*
X203320000Y-83620000D01*
%TO.C,U2*%
X123100000Y-91630000D02*
X129260000Y-91630000D01*
X123100000Y-91630000D02*
X123100000Y-73390000D01*
X148060000Y-91630000D02*
X148840000Y-91630000D01*
X148840000Y-91630000D02*
X148840000Y-90630000D01*
X123100000Y-73390000D02*
X129515000Y-73390000D01*
X148060000Y-73390000D02*
X148840000Y-73390000D01*
X148840000Y-73390000D02*
X148840000Y-74390000D01*
X129985000Y-92135000D02*
X129485000Y-91635000D01*
X129985000Y-91635000D01*
X129985000Y-92135000D01*
G36*
X129985000Y-92135000D02*
G01*
X129485000Y-91635000D01*
X129985000Y-91635000D01*
X129985000Y-92135000D01*
G37*
%TO.C,J1*%
X176210000Y-38940000D02*
X176210000Y-40270000D01*
X174880000Y-38940000D02*
X176210000Y-38940000D01*
X173610000Y-38940000D02*
X140530000Y-38940000D01*
X173610000Y-38940000D02*
X173610000Y-41600000D01*
X140530000Y-38940000D02*
X140530000Y-41600000D01*
X173610000Y-41600000D02*
X140530000Y-41600000D01*
%TO.C,SW3*%
X146040000Y-116075000D02*
X146040000Y-117575000D01*
X147290000Y-120075000D02*
X151790000Y-120075000D01*
X151790000Y-113575000D02*
X147290000Y-113575000D01*
X153040000Y-117575000D02*
X153040000Y-116075000D01*
%TO.C,SW1*%
X155540000Y-108625000D02*
X155540000Y-110125000D01*
X156790000Y-112625000D02*
X161290000Y-112625000D01*
X161290000Y-106125000D02*
X156790000Y-106125000D01*
X162540000Y-110125000D02*
X162540000Y-108625000D01*
%TO.C,SW2*%
X165140000Y-116150000D02*
X165140000Y-117650000D01*
X166390000Y-120150000D02*
X170890000Y-120150000D01*
X170890000Y-113650000D02*
X166390000Y-113650000D01*
X172140000Y-117650000D02*
X172140000Y-116150000D01*
%TO.C,J4*%
X198960000Y-38030000D02*
X200290000Y-38030000D01*
X198960000Y-39360000D02*
X198960000Y-38030000D01*
X198960000Y-40630000D02*
X198960000Y-53390000D01*
X198960000Y-40630000D02*
X201620000Y-40630000D01*
X198960000Y-53390000D02*
X201620000Y-53390000D01*
X201620000Y-40630000D02*
X201620000Y-53390000D01*
%TO.C,D4*%
X161435000Y-29305000D02*
X161435000Y-32395000D01*
X166984999Y-30850462D02*
G75*
G03*
X161435001Y-29305170I-2989999J462D01*
G01*
X161435000Y-32394830D02*
G75*
G03*
X166985000Y-30849538I2560000J1544830D01*
G01*
X166495000Y-30850000D02*
G75*
G03*
X161495000Y-30850000I-2500000J0D01*
G01*
X161495000Y-30850000D02*
G75*
G03*
X166495000Y-30850000I2500000J0D01*
G01*
%TO.C,SW4*%
X155465000Y-123775000D02*
X155465000Y-125275000D01*
X156715000Y-127775000D02*
X161215000Y-127775000D01*
X161215000Y-121275000D02*
X156715000Y-121275000D01*
X162465000Y-125275000D02*
X162465000Y-123775000D01*
%TO.C,D2*%
X146435000Y-29305000D02*
X146435000Y-32395000D01*
X151984999Y-30850462D02*
G75*
G03*
X146435001Y-29305170I-2989999J462D01*
G01*
X146435000Y-32394830D02*
G75*
G03*
X151985000Y-30849538I2560000J1544830D01*
G01*
X151495000Y-30850000D02*
G75*
G03*
X146495000Y-30850000I-2500000J0D01*
G01*
X146495000Y-30850000D02*
G75*
G03*
X151495000Y-30850000I2500000J0D01*
G01*
%TO.C,D3*%
X153935000Y-29305000D02*
X153935000Y-32395000D01*
X159484999Y-30850462D02*
G75*
G03*
X153935001Y-29305170I-2989999J462D01*
G01*
X153935000Y-32394830D02*
G75*
G03*
X159485000Y-30849538I2560000J1544830D01*
G01*
X158995000Y-30850000D02*
G75*
G03*
X153995000Y-30850000I-2500000J0D01*
G01*
X153995000Y-30850000D02*
G75*
G03*
X158995000Y-30850000I2500000J0D01*
G01*
%TO.C,D1*%
X138935000Y-29305000D02*
X138935000Y-32395000D01*
X144484999Y-30850462D02*
G75*
G03*
X138935001Y-29305170I-2989999J462D01*
G01*
X138935000Y-32394830D02*
G75*
G03*
X144485000Y-30849538I2560000J1544830D01*
G01*
X143995000Y-30850000D02*
G75*
G03*
X138995000Y-30850000I-2500000J0D01*
G01*
X138995000Y-30850000D02*
G75*
G03*
X143995000Y-30850000I2500000J0D01*
G01*
%TD*%
M02*
